<?xml version="1.0" encoding="UTF-8" standalone="no"?>
<svg
   xmlns:dc="http://purl.org/dc/elements/1.1/"
   xmlns:cc="http://creativecommons.org/ns#"
   xmlns:rdf="http://www.w3.org/1999/02/22-rdf-syntax-ns#"
   xmlns:svg="http://www.w3.org/2000/svg"
   xmlns="http://www.w3.org/2000/svg"
   xmlns:sodipodi="http://sodipodi.sourceforge.net/DTD/sodipodi-0.dtd"
   xmlns:inkscape="http://www.inkscape.org/namespaces/inkscape"
   inkscape:version="1.0 (4035a4fb49, 2020-05-01)"
   sodipodi:docname="flag_gbsom.svg"
   viewBox="0 0 48 48"
   height="48"
   width="48"
   xml:space="preserve"
   id="svg110"
   version="1.1"><metadata
     id="metadata116"><rdf:RDF><cc:Work
         rdf:about=""><dc:format>image/svg+xml</dc:format><dc:type
           rdf:resource="http://purl.org/dc/dcmitype/StillImage" /><dc:title></dc:title></cc:Work></rdf:RDF></metadata><defs
     id="defs114"><clipPath
       id="clipPath126"
       clipPathUnits="userSpaceOnUse"><path
         id="path124"
         d="M 0,36 H 36 V 0 H 0 Z" /></clipPath><clipPath
       id="clipPath134"
       clipPathUnits="userSpaceOnUse"><path
         id="path132"
         d="M 0,36 H 36 V 0 H 0 Z" /></clipPath></defs><sodipodi:namedview
     inkscape:current-layer="g118"
     inkscape:window-maximized="0"
     inkscape:window-y="0"
     inkscape:window-x="0"
     inkscape:cy="18.503142"
     inkscape:cx="16.421354"
     inkscape:zoom="12.521683"
     showgrid="false"
     id="namedview112"
     inkscape:window-height="888"
     inkscape:window-width="1377"
     inkscape:pageshadow="2"
     inkscape:pageopacity="0"
     guidetolerance="10"
     gridtolerance="10"
     objecttolerance="10"
     borderopacity="1"
     bordercolor="#666666"
     pagecolor="#ffffff" /><g
     transform="matrix(1.3333333,0,0,-1.3333333,0,48)"
     inkscape:label="flag_gbsom"
     inkscape:groupmode="layer"
     id="g118"><g
       id="g120"><g
         clip-path="url(#clipPath126)"
         id="g122"><g
           id="g128"><g
             clip-path="url(#clipPath134)"
             id="g130"><path
               id="path136"
               style="fill:#f9d616;fill-opacity:1;fill-rule:nonzero;stroke:none"
               d="M 36,9 C 36,6.791 34.209,5 32,5 H 4 C 1.791,5 0,6.791 0,9 v 18 c 0,2.209 1.791,4 4,4 h 28 c 2.209,0 4,-1.791 4,-4 z" /></g></g><path
           id="path138"
           style="fill:#ce1126;fill-opacity:1;fill-rule:nonzero;stroke:none"
           d="m 25.141,15.333 0.359,0.594 -0.398,-1.388 -0.215,0.125 z" /><path
           id="path140"
           style="fill:#ce1126;fill-opacity:1;fill-rule:nonzero;stroke:none"
           d="m 23.09,27.215 c -0.117,0.477 0.193,0.905 0.127,1.243 -3.08,-2.56 -4.663,-6.082 -4.663,-6.082 0.926,-0.493 0.697,-1.631 -0.233,-1.762 0.43,-0.306 1.681,-0.264 2.472,0.1 z" /><path
           id="path142"
           style="fill:#0072c6;fill-opacity:1;fill-rule:nonzero;stroke:none"
           d="m 10.578,18.431 c 0.15,0.258 0.564,0.493 0.851,0.391 0.09,-0.051 0.213,-0.194 0.227,-0.226 0.011,-0.031 -0.446,-0.308 -0.471,-0.295 -0.084,0.05 -0.248,0.151 -0.607,0.13" /><path
           id="path144"
           style="fill:#0072c6;fill-opacity:1;fill-rule:nonzero;stroke:none"
           d="m 10.482,16.948 c -0.086,0.246 0.002,0.557 0.414,0.815 0.1,0.029 0.268,0.023 0.3,0.011 0.562,-0.084 -0.099,-0.433 -0.147,-0.445 -0.082,-0.01 -0.41,-0.067 -0.567,-0.381" /><path
           id="path146"
           style="fill:#0072c6;fill-opacity:1;fill-rule:nonzero;stroke:none"
           d="m 11.092,16.015 c -0.154,0.237 -0.134,0.647 0.162,0.863 0.093,0.05 0.264,0.079 0.297,0.074 0.032,-0.005 0.069,-0.451 0.044,-0.469 -0.065,-0.047 -0.374,-0.159 -0.503,-0.468" /><path
           id="path148"
           style="fill:#0072c6;fill-opacity:1;fill-rule:nonzero;stroke:none"
           d="m 13.656,16.151 c 0.377,0.231 0.441,0.744 0.1,0.891 -0.091,0.05 -0.259,0.079 -0.297,0.074 -0.031,-0.004 -0.065,-0.451 -0.043,-0.469 0.065,-0.047 0.241,-0.146 0.24,-0.496" /><path
           id="path150"
           style="fill:#0072c6;fill-opacity:1;fill-rule:nonzero;stroke:none"
           d="m 13.099,14.264 c 0.134,0.19 0.554,0.231 0.861,0.026 0.072,-0.07 0.193,-0.152 0.196,-0.189 0.13,-0.28 -0.432,-0.285 -0.51,-0.226 -0.082,0.061 -0.219,0.392 -0.547,0.389" /><path
           id="path152"
           style="fill:#0072c6;fill-opacity:1;fill-rule:nonzero;stroke:none"
           d="m 13.449,13.815 c -0.086,0.037 -0.161,0.039 -0.224,0.103 -0.067,0.007 -0.19,-0.024 -0.329,-0.108 -0.136,-0.09 -0.287,-0.221 -0.287,-0.286 0.082,0.032 0.103,0.027 0.164,0.029 0.058,10e-4 0.1,0.003 0.14,-0.007 0.129,-0.051 0.272,-0.204 0.272,-0.204 0,0 0.349,0.078 0.394,0.12 0.138,0.136 -0.072,0.38 -0.13,0.353" /><path
           id="path154"
           style="fill:#0072c6;fill-opacity:1;fill-rule:nonzero;stroke:none"
           d="m 12.857,12.161 c -0.084,0.484 0.243,0.964 0.753,0.964 0.101,-0.012 0.175,-0.088 0.198,-0.112 0.023,-0.023 -0.061,-0.51 -0.09,-0.511 -0.083,-0.003 -0.585,0.067 -0.861,-0.341" /><path
           id="path156"
           style="fill:#0072c6;fill-opacity:1;fill-rule:nonzero;stroke:none"
           d="m 15.039,11.966 c 0.087,-0.117 0.153,-0.194 0.207,-0.326 0.016,-0.036 0.161,-0.226 0.037,-0.514 0.085,0.024 0.193,0.141 0.276,0.267 0.065,0.099 0.175,0.366 0.136,0.473 -0.03,0.086 -0.024,0.098 -0.049,0.161 -0.014,0.043 -0.29,0.312 -0.311,0.291 -0.085,-0.085 -0.309,-0.22 -0.296,-0.352" /><path
           id="path158"
           style="fill:#0072c6;fill-opacity:1;fill-rule:nonzero;stroke:none"
           d="M 17.378,9.88 C 17.225,9.958 16.932,9.962 16.833,9.924 16.687,9.872 16.558,9.758 16.507,9.69 16.471,9.636 16.429,9.489 16.446,9.332 c 0.173,0.157 0.365,0.113 0.387,0.114 0.16,0.007 0.458,-0.066 0.533,0.006 0.11,0.113 0.126,0.389 0.012,0.428" /><path
           id="path160"
           style="fill:#0072c6;fill-opacity:1;fill-rule:nonzero;stroke:none"
           d="M 17.199,9.065 C 17.036,9.168 16.834,9.161 16.665,9.056 16.399,8.894 16.309,8.53 16.352,8.368 c 0.103,0.153 0.284,0.241 0.4,0.238 0.186,-0.004 0.18,0.018 0.297,0.045 0.153,0.04 0.313,0.285 0.15,0.414" /><path
           id="path162"
           style="fill:#0072c6;fill-opacity:1;fill-rule:nonzero;stroke:none"
           d="m 17.292,7.5 c -0.031,0.17 -0.029,0.469 0.092,0.65 0.073,0.108 0.379,0.494 0.518,0.398 C 17.981,8.499 18.076,8.358 18.1,8.274 18.182,7.945 17.887,7.972 17.632,7.832 17.517,7.77 17.424,7.65 17.292,7.5" /><path
           id="path164"
           style="fill:#0072c6;fill-opacity:1;fill-rule:nonzero;stroke:none"
           d="m 20.385,9.345 c 0.355,0.017 0.638,-0.308 0.724,-0.472 0.02,-0.037 0.053,-0.183 0.053,-0.183 0,0 -0.244,0.101 -0.287,0.117 -0.154,0.043 -0.631,-0.035 -0.707,0.043 -0.246,0.245 0.041,0.389 0.217,0.495" /><path
           id="path166"
           style="fill:#ce1126;fill-opacity:1;fill-rule:nonzero;stroke:none"
           d="m 20.422,17.458 c 0,0 0.539,0.126 0.766,-0.027 -0.165,-0.063 -0.415,-0.351 -0.415,-0.351 z" /><path
           id="path168"
           style="fill:#ce1126;fill-opacity:1;fill-rule:nonzero;stroke:none"
           d="m 21.031,16.161 c 0,0 0.565,0.049 0.737,-0.143 -0.163,-0.063 -0.471,-0.341 -0.471,-0.341 z" /><path
           id="path170"
           style="fill:#ce1126;fill-opacity:1;fill-rule:nonzero;stroke:none"
           d="m 18.344,25.208 c 0,0 0.57,-0.475 0.679,-0.8 -0.203,0.137 -0.47,0.176 -0.648,0.238 z" /><path
           id="path172"
           style="fill:#ce1126;fill-opacity:1;fill-rule:nonzero;stroke:none"
           d="m 18.203,23.552 c 0,0 0.471,-0.355 0.423,-0.599 -0.154,0.093 -0.532,0.13 -0.532,0.13 z" /><path
           id="path174"
           style="fill:#ce1126;fill-opacity:1;fill-rule:nonzero;stroke:none"
           d="m 17.844,22.067 c 0,0 0.502,-0.314 0.497,-0.562 -0.167,0.064 -0.528,0.016 -0.528,0.016 z" /><path
           id="path176"
           style="fill:#ce1126;fill-opacity:1;fill-rule:nonzero;stroke:none"
           d="m 26.545,18.191 c 0,0 0.123,-0.018 0.588,-0.409 0,0 -0.16,1.209 -1.016,2.594 -0.068,-1.369 -0.638,-2.274 -0.638,-2.274 0.404,-0.009 0.529,0.03 0.699,0.075 -0.065,-0.895 -0.209,-1.383 -0.49,-1.958 0.136,-0.283 0.136,-0.578 0.193,-0.866 0.599,0.802 0.799,1.98 0.664,2.838" /><path
           id="path178"
           style="fill:#0072c6;fill-opacity:1;fill-rule:nonzero;stroke:none"
           d="m 10.855,25.627 c 0.315,0.138 0.576,0.051 0.859,-0.19 0.043,-0.093 0.096,-0.24 0.091,-0.277 0.033,-0.301 -0.415,-0.119 -0.469,-0.042 -0.058,0.083 -0.204,0.419 -0.481,0.509" /><path
           id="path180"
           style="fill:none;stroke:#000000;stroke-width:0.2;stroke-linecap:butt;stroke-linejoin:miter;stroke-miterlimit:4;stroke-dasharray:none;stroke-opacity:1"
           d="m 16.548,26.479 c -0.15,-0.125 -0.189,-0.494 -0.323,-0.693" /><path
           id="path182"
           style="fill:#ce1126;fill-opacity:1;fill-rule:nonzero;stroke:none"
           d="m 23.832,15.029 c -0.445,0.142 -0.777,0.614 -0.615,1.205 0.329,1.229 2.085,0.703 2.062,-0.631 -0.439,-0.504 -1.008,-0.712 -1.447,-0.574 m 1.441,0.302 C 25.223,15.069 25.13,14.865 25.018,14.69 l 0.26,0.85 c -0.004,-0.071 0.01,-0.134 -0.005,-0.209 m -9.048,10.455 c 0,0 -0.253,0.348 -0.354,0.609 0.437,0.021 0.693,0.087 0.693,0.087 0.116,-0.228 0.246,-0.353 0.394,-0.544 -0.256,-0.071 -0.381,-0.101 -0.733,-0.152 m 9.449,-9.326 c -0.561,1.233 -2.457,1.795 -3.151,-0.163 -0.199,-0.555 0.081,-1.31 0.649,-1.656 0.517,-0.317 1.315,-0.375 1.774,-0.035 -0.693,-0.902 -2.208,-0.484 -3.264,0.763 -0.202,0.234 -0.409,0.491 -0.571,0.77 0,0 0.01,0.645 -0.736,1.484 -0.104,0.181 -0.17,0.18 -0.088,0.345 1.162,1.63 2.354,3.378 2.938,5.098 0.49,1.544 0.38,3.403 1.355,4.975 l -0.004,0.02 c 0.031,0.098 0.033,0.179 0.106,0.439 -2.625,-1.915 -4.994,-4.622 -5.705,-6.063 1.044,-0.397 0.816,-2.179 -0.668,-1.819 -0.121,0.041 -0.347,0.195 -0.348,0.195 -0.136,0.788 -0.049,0.983 -0.031,1.382 0,0 0.284,1.057 0.356,1.432 0,0 0.323,1.311 -0.056,2.327 -0.165,0.443 0.375,0.657 0.631,0.661 -0.142,0.275 -0.15,0.819 0.102,1.055 0.047,0.044 0.033,0.12 0.033,0.12 0,0 -0.177,-0.309 -0.995,-0.614 -0.331,-0.124 -0.73,-0.438 -0.8,-0.611 l -0.024,0.027 c -3.142,1.634 -0.409,-1.001 -0.844,-2.299 -0.108,-0.828 -0.63,-1.768 -1.183,-2.317 -0.136,-0.139 -0.14,-0.428 -0.202,-0.592 -0.135,-0.349 -0.116,-0.79 -0.226,-1.117 -0.088,-0.269 -0.176,-0.515 -0.176,-0.791 0.155,-0.278 0.174,-0.327 0.084,-0.367 -0.472,-0.208 -1.078,-0.647 -1.213,-0.688 -0.121,-0.038 -0.325,-0.141 -0.433,-0.195 -0.123,-0.074 -0.348,-0.134 -0.348,-0.134 0,0 -0.294,0.203 -0.498,0.453 -0.034,0.043 -0.156,0.088 -0.186,0.114 -0.071,0.07 -0.041,0.142 -0.115,0.18 -0.119,0.015 -0.276,0.034 -0.276,0.034 -0.012,0.038 -0.114,0.021 -0.223,-0.034 0.163,-0.077 0.255,-0.164 0.286,-0.285 -0.188,-0.034 -0.387,-0.101 -0.497,-0.214 -0.02,-0.105 0.089,-0.198 0.14,-0.267 -0.139,-0.072 -0.23,-0.103 -0.267,-0.238 -0.009,-0.072 0.233,-0.123 0.329,-0.204 -0.137,-0.125 -0.273,-0.285 -0.273,-0.416 0.043,-0.058 0.084,-0.037 0.149,-0.037 -0.136,-0.24 -0.053,-0.391 -0.053,-0.391 0,0 0.201,0.129 0.428,0.124 -0.078,-0.123 -0.009,-0.452 -0.009,-0.452 -0.007,-0.002 0.316,-0.037 0.523,0.019 0.148,0.332 0.422,0.757 0.729,0.831 0.163,0.016 0.267,-0.104 0.319,-0.23 0.026,-0.118 -0.025,-0.263 -0.025,-0.348 0.057,-0.111 0.198,-0.085 0.282,-0.148 0.164,0.044 0.189,0.396 0.189,0.396 0,0 0.093,0.011 0.353,-0.08 0.078,0.055 0.105,0.177 0.105,0.242 -0.006,0.134 -0.457,0.292 -0.442,0.463 0.011,0.128 0.452,0.245 0.675,0.321 0.338,0.109 0.571,0.185 1.018,0.179 0.909,-0.879 0.957,-0.717 1.988,-1.432 -0.076,-0.132 -0.154,-0.213 -0.25,-0.313 -0.243,-0.242 -1.174,-0.671 -0.904,-1.207 0.11,-0.224 0.536,-1.022 0.425,-1.24 -0.091,-0.182 -0.742,-0.39 -0.891,-0.466 -0.394,-0.026 -0.47,-0.012 -0.843,-0.012 -0.061,0 -0.536,0.47 -0.696,0.81 -0.033,0.071 -0.207,-0.013 -0.207,-0.013 0,0 0.063,-0.246 0.063,-0.291 -0.008,-0.002 -0.157,-0.004 -0.256,-10e-4 -0.096,0.003 -0.138,0.019 -0.287,0.035 -0.177,0.012 -0.177,-0.118 -0.177,-0.118 0.124,-0.083 0.147,-0.165 0.22,-0.248 l -0.281,-0.241 c 0,0 0.064,-0.036 0.073,-0.123 -0.112,-0.046 -0.266,-0.272 -0.234,-0.347 0.169,-0.009 0.264,0.076 0.529,0.053 -0.051,-0.137 -0.131,-0.368 -0.067,-0.447 0.037,-0.08 0.113,-0.137 0.283,-0.145 0.106,0.068 0.227,0.19 0.298,0.213 0.162,0.059 0.689,0.076 0.772,0.041 0.037,-0.011 0.155,-0.417 0.032,-0.685 -0.056,-0.134 0.168,-0.164 0.297,-0.243 0,0 0.127,0.229 0.129,0.396 0.096,-0.021 0.361,-0.195 0.361,-0.195 0,0 0.13,0.145 0.095,0.266 -0.012,0.045 -0.308,0.37 -0.311,0.496 -0.008,0.185 0.408,0.189 1.125,0.27 0.268,0.033 0.949,-0.164 1.442,-0.304 0.44,-0.123 0.684,-0.071 0.681,-0.071 0,0 -0.337,0.13 -0.706,0.687 0.01,0.082 0.086,0.202 0.176,0.357 0.509,0 1.192,-1.066 1.496,-1.371 0.08,-0.08 0.168,-0.476 0.178,-0.639 0.002,-0.063 -0.075,-0.111 -0.1,-0.164 -0.156,-0.305 -0.367,-0.633 -0.559,-0.937 -0.38,-0.561 -0.553,-0.782 -0.747,-0.737 -0.102,0.024 -0.262,0 -0.514,0.086 -0.277,0.098 -0.564,0.243 -0.657,0.202 -0.297,-0.126 0.095,-0.193 0,-0.388 C 17.229,9.551 16.823,9.345 16.821,9.114 16.914,9.08 16.987,9.078 17.078,8.949 L 16.86,8.585 C 16.916,8.444 17.04,8.426 17.087,8.47 17.304,8.674 17.591,8.727 17.65,8.725 17.732,8.717 17.458,8.56 17.407,8.501 17.356,8.443 17.424,8.421 17.475,8.368 17.589,8.257 17.813,8.5 17.927,8.383 18.023,8.284 17.776,7.993 17.833,7.886 c 0.201,-0.061 0.424,-0.031 0.459,0.048 0.204,0.431 0.6,0.915 0.815,1.049 0.137,0 0.649,-0.114 0.959,-0.37 0.071,-0.048 0.223,0.094 0.399,0.204 -0.061,0.158 -0.184,0.118 -0.18,0.283 -0.015,0.02 0.168,0.159 0.246,0.223 0.018,0.016 0.045,0.059 -0.033,0.07 -0.309,-0.007 -0.783,0.07 -0.861,0.099 0.092,0.199 0.181,0.628 0.511,1.017 0.276,0.314 0.631,0.833 1.067,1.168 0.244,0.177 0.449,0.52 0.67,0.74 0.005,0.005 0.017,0.013 0.027,0.02 -0.224,-0.093 -0.808,-0.146 -0.924,-0.035 -0.08,0.081 -0.236,0.432 -0.273,0.538 -0.016,0.05 -0.113,0.131 -0.063,0.131 0.203,0 0.442,0.937 0.52,1.111 0.98,-0.184 1.887,-1.224 3.26,-0.712 1.644,0.613 1.707,1.946 1.242,2.99 m -3.762,-4.023 c 0.032,0.013 0.058,0.028 0.072,0.042 0.023,0.022 -0.034,-0.013 -0.072,-0.042" /><path
           id="path184"
           style="fill:#ce1126;fill-opacity:1;fill-rule:nonzero;stroke:none"
           d="m 24.578,28.072 c -2.603,-1.872 -4.715,-5.557 -4.715,-5.557 0.895,-0.66 0.625,-1.869 0.237,-2.443 -0.432,-0.686 -1.24,-0.751 -1.833,-0.623 -0.078,0.034 -0.162,0.082 -0.222,0.101 1.695,-1.118 1.935,-2.496 1.935,-2.496 0.61,1.066 1.387,1.367 2.424,0.995 -0.353,1.179 0.309,1.948 1.393,2.2 -0.66,0.848 -0.193,1.964 1.016,2.56 -0.961,0.971 -0.561,2.583 0.58,3.393 -0.567,0.329 -0.936,1.129 -0.815,1.87" /><path
           id="path186"
           style="fill:#ce1126;fill-opacity:1;fill-rule:nonzero;stroke:none"
           d="m 18.197,26.17 c 0,0 0.042,-0.026 0.193,-0.175 -0.285,0.006 -0.432,10e-4 -0.432,10e-4" /><path
           id="path188"
           style="fill:#0072c6;fill-opacity:1;fill-rule:nonzero;stroke:none"
           d="m 10.917,22.231 c 0.245,-0.243 0.521,-0.254 0.87,-0.13 0.073,0.071 0.176,0.188 0.183,0.225 0.138,0.27 -0.344,0.26 -0.421,0.206 -0.087,-0.058 -0.339,-0.317 -0.632,-0.301" /><path
           id="path190"
           style="fill:#0072c6;fill-opacity:1;fill-rule:nonzero;stroke:none"
           d="m 10.574,23.087 c -0.07,0.273 0.083,0.653 0.434,0.765 0.102,0.011 0.274,-0.015 0.305,-0.031 0.025,-0.017 -0.087,-0.449 -0.111,-0.458 -0.08,-0.024 -0.408,-0.023 -0.628,-0.276" /><path
           id="path192"
           style="fill:#0072c6;fill-opacity:1;fill-rule:nonzero;stroke:none"
           d="m 10.369,24.412 c 0.03,0.28 0.373,0.541 0.742,0.521 0.1,-0.025 0.216,-0.092 0.237,-0.118 0.021,-0.026 -0.237,-0.388 -0.265,-0.387 C 11,24.431 10.662,24.57 10.369,24.412" /><path
           id="path194"
           style="fill:#ce1126;fill-opacity:1;fill-rule:nonzero;stroke:none"
           d="m 16.364,24.451 c -0.007,-0.059 -0.088,-0.237 -0.022,-0.278 0.159,-0.094 0.468,-0.141 0.544,-0.044 0.118,0.139 0.103,0.403 0.079,0.59 -0.021,0.041 -0.417,0.108 -0.454,0.098 -0.093,-0.022 -0.098,-0.052 -0.147,-0.366" /><path
           id="path196"
           style="fill:#ce1126;fill-opacity:1;fill-rule:nonzero;stroke:none"
           d="m 16.292,22.377 c 0.285,0.144 0.706,1.471 0.568,1.582 -0.134,0.104 -0.346,0.13 -0.518,0.14 -0.186,0.009 -0.327,-0.797 -0.743,-1.231 -0.107,-0.11 -0.016,-0.265 0.066,-0.304 0.359,-0.166 0.349,-0.188 0.627,-0.187" /><path
           id="path198"
           style="fill:#ce1126;fill-opacity:1;fill-rule:nonzero;stroke:none"
           d="m 14.722,20.391 c -0.144,-0.103 -0.372,-0.025 -0.491,-0.124 -0.159,-0.137 -0.074,-0.402 -0.063,-0.655 -0.231,0.163 -0.824,1.217 -1.028,1.721 -0.089,0.217 -0.338,0.665 -0.483,0.922 -0.139,0.238 -0.279,0.289 -0.279,0.371 0,0.122 -0.019,0.104 -0.097,-0.001 -0.145,-0.203 -0.237,-0.505 -0.319,-0.567 -0.1,0 -0.125,-0.009 -0.216,-0.01 0.002,0.073 0.038,0.299 0.011,0.373 -0.062,0 -0.338,-0.046 -0.413,-0.034 -0.009,0.062 0.021,0.179 0.021,0.23 0,0.015 0.333,0.245 0.412,0.418 0.085,0.192 0.055,0.361 0.171,0.493 0.046,0.057 -0.113,0.077 -0.143,0.071 -0.128,-0.028 -0.375,-0.187 -0.39,-0.215 -0.037,-0.05 -0.059,-0.062 -0.128,-0.084 -0.031,-0.01 -0.104,0.022 -0.159,0.051 -0.028,0.085 0.102,0.295 0.15,0.373 -0.086,0.02 -0.219,0.03 -0.426,0.008 -0.005,0.09 0.025,0.257 0.081,0.275 0.427,0.144 0.824,0.134 1.051,0.105 0.026,-0.002 -0.125,0.038 -0.188,0.053 -0.453,0.128 -0.653,0.081 -0.853,0.171 -0.143,0.062 0.098,0.235 0.312,0.339 -0.054,0.126 -0.248,0.248 -0.199,0.264 0.108,0.036 0.207,0.102 0.319,0.206 0.133,-0.02 0.3,-0.072 0.373,-0.1 0.083,0.187 -0.105,0.38 -0.116,0.462 0.101,0.03 0.085,-0.02 0.186,0.019 0.09,0.033 0.219,-0.563 0.243,-0.649 0.077,-0.317 0.355,-0.404 0.382,-0.584 0.049,-0.325 0.095,-0.881 0.534,-1.401 0.277,-0.329 2.02,-1.294 2.093,-1.44 0.102,-0.204 -0.227,-0.958 -0.348,-1.061" /><path
           id="path200"
           style="fill:#ce1126;fill-opacity:1;fill-rule:nonzero;stroke:none"
           d="m 16.229,22.214 c -0.064,-0.352 -0.18,-0.627 -0.339,-0.943 -0.093,-0.185 -0.184,-0.455 -0.265,-0.616 -0.072,-0.144 -0.567,-0.085 -0.844,-0.043 -0.14,0.021 -0.182,0.117 -0.16,0.231 0.066,0.344 0.25,0.76 0.424,1.095 0.175,0.334 0.341,0.533 0.424,0.541 0.452,0.042 0.571,-0.06 0.76,-0.265" /><path
           id="path202"
           style="fill:#ce1126;fill-opacity:1;fill-rule:nonzero;stroke:none"
           d="m 15.599,20.576 c -0.128,-0.045 -0.788,0.029 -0.788,0.029 -0.115,-0.008 -0.223,-0.318 -0.279,-0.597 -0.082,-0.387 0.013,-0.665 0.087,-0.755 0.15,-0.178 0.278,-0.03 0.554,0.272 0.181,0.196 0.093,0.156 0.11,0.369 0.018,0.236 0.526,0.762 0.316,0.682" /><path
           id="path204"
           style="fill:#ce1126;fill-opacity:1;fill-rule:nonzero;stroke:none"
           d="m 15.333,18.122 c -0.063,-0.155 0.784,-0.947 1.184,-1.111 0.079,-0.034 0.189,-0.034 0.292,0.051 0.38,0.389 0.739,0.611 0.865,0.817 0.112,0.182 -0.757,0.809 -0.886,1.017" /><path
           id="path206"
           style="fill:#ce1126;fill-opacity:1;fill-rule:nonzero;stroke:none"
           d="m 19.08,16.538 c -0.014,0.15 0.02,0.133 -0.091,0.266 -0.259,0.3 -1.042,0.979 -1.135,1.013 -0.106,0.04 -0.089,0.063 -0.219,-0.012 -0.195,-0.119 -0.344,-0.284 -0.526,-0.464 -0.102,-0.102 -0.28,-0.311 -0.361,-0.421 -0.072,-0.09 1.152,-0.643 1.632,-0.911 0.07,-0.04 0.237,0.023 0.237,0.023 0.141,0.12 0.277,0.435 0.463,0.506" /><path
           id="path208"
           style="fill:#ce1126;fill-opacity:1;fill-rule:nonzero;stroke:none"
           d="m 13.694,22.161 c 0.002,0.03 0.059,0.329 -0.037,0.391 -0.085,0.053 -0.274,0.173 -0.456,0.302 -0.184,0.131 -0.377,0.285 -0.381,0.261 -0.058,-0.232 -0.15,-0.309 -0.078,-0.348 0.184,-0.1 0.552,-0.336 0.729,-0.562 0.056,-0.069 0.175,-0.034 0.223,-0.044" /><path
           id="path210"
           style="fill:#ce1126;fill-opacity:1;fill-rule:nonzero;stroke:none"
           d="m 13.706,22.369 c 0.005,-0.049 -0.014,-0.248 -0.009,-0.295 0.027,-0.168 0.178,-0.241 0.48,-0.597 0.028,-0.029 0.193,-0.124 0.248,-0.066 0.035,0.032 0.109,0.322 0.12,0.415 0.008,0.053 -0.023,0.069 -0.048,0.112 -0.082,0.15 -0.452,0.34 -0.549,0.431 -0.056,0.048 -0.169,0.023 -0.242,0" /><path
           id="path212"
           style="fill:#ce1126;fill-opacity:1;fill-rule:nonzero;stroke:none"
           d="m 14.893,21.662 c -0.009,0.081 -0.123,0.143 -0.224,0.143 -0.069,0 -0.124,0.018 -0.133,-0.039 -0.02,-0.122 -0.12,-0.352 -0.084,-0.454 0.033,-0.103 0.162,-0.195 0.186,-0.198 0.062,-0.009 0.125,0.124 0.187,0.331 0.02,0.071 0.083,0.137 0.068,0.217" /><path
           id="path214"
           style="fill:#ce1126;fill-opacity:1;fill-rule:nonzero;stroke:none"
           d="m 19.219,16.602 c -0.1,-0.021 -0.396,-0.228 -0.49,-0.421 -0.082,-0.164 -0.238,-0.416 -0.294,-0.596 -0.011,-0.032 -0.044,-0.194 -0.048,-0.288 -0.007,-0.087 0.017,-0.146 0.067,-0.134 0.521,0.087 0.808,0.127 0.852,0.187 0.085,0.109 0.163,0.246 0.204,0.378 0.064,0.215 0.189,0.485 0.185,0.694 -0.006,0.043 -0.324,0.19 -0.476,0.18" /><path
           id="path216"
           style="fill:#ce1126;fill-opacity:1;fill-rule:nonzero;stroke:none"
           d="m 19.172,15.269 c -0.319,-0.074 -0.832,-0.083 -0.871,-0.18 -0.062,-0.158 -0.266,-0.84 -0.236,-1.108 0.011,-0.098 0.03,-0.102 0.165,-0.168 0.091,-0.044 0.629,0.193 0.694,0.229 0.119,0.06 0.168,0.017 0.187,0.13 0.069,0.427 0.163,0.877 0.16,0.962 -0.006,0.134 -0.029,0.091 -0.099,0.135" /><path
           id="path218"
           style="fill:#ce1126;fill-opacity:1;fill-rule:nonzero;stroke:none"
           d="m 19.672,13.118 c -0.108,0.162 -0.186,0.248 -0.304,0.385 -0.079,0.09 -0.198,0.287 -0.239,0.402 -0.02,0.062 -0.041,0.143 -0.106,0.143 -0.086,0 -0.711,-0.25 -0.747,-0.279 -0.059,-0.053 -0.135,-0.061 -0.062,-0.198 0.168,-0.307 0.579,-0.733 0.872,-0.843 0.06,-0.023 0.127,0.068 0.25,0.171 0.117,0.104 0.314,0.185 0.336,0.219" /><path
           id="path220"
           style="fill:#ce1126;fill-opacity:1;fill-rule:nonzero;stroke:none"
           d="m 20.533,12.016 c 0.016,0.075 0.065,0.058 -0.013,0.181 -0.124,0.203 -0.555,0.703 -0.668,0.823 -0.041,0.04 -0.137,0.093 -0.225,0.043 -0.234,-0.115 -0.426,-0.279 -0.445,-0.329 -0.016,-0.043 -0.096,-0.089 -0.041,-0.162 0.113,-0.133 0.341,-0.496 0.511,-0.637 0.036,-0.025 0.061,-0.053 0.168,-0.041 0.153,0.02 0.344,0.097 0.713,0.122" /><path
           id="path222"
           style="fill:#ce1126;fill-opacity:1;fill-rule:nonzero;stroke:none"
           d="m 20.055,11.172 c 0.361,0.568 0.677,0.761 0.515,0.775 -0.054,0.002 -0.166,0.037 -0.242,0 -0.098,-0.052 -0.435,-0.063 -0.533,-0.118 -0.166,-0.09 -0.147,-0.211 -0.229,-0.446 -0.031,-0.05 -0.097,-0.315 -0.062,-0.317 0.51,-0.039 0.535,0.06 0.551,0.106" /><path
           id="path224"
           style="fill:#ce1126;fill-opacity:1;fill-rule:nonzero;stroke:none"
           d="m 19.932,10.986 c -0.055,0.018 -0.45,0.145 -0.509,0.006 -0.07,-0.153 -0.137,-0.33 -0.251,-0.513 -0.039,-0.061 -0.271,-0.307 -0.229,-0.398 0.044,-0.1 0.186,-0.033 0.373,-0.099 0.025,-0.014 0.157,-0.101 0.176,-0.062 0.055,0.104 0.031,0.204 0.08,0.353 0.106,0.32 0.196,0.402 0.36,0.713" /><path
           id="path226"
           style="fill:#ce1126;fill-opacity:1;fill-rule:nonzero;stroke:none"
           d="m 17.292,16.694 c -0.165,0.142 -0.509,-0.331 -0.462,-0.352 0.074,-0.039 0.338,-0.16 0.524,-0.254 0.186,-0.101 0.291,-0.181 0.371,-0.1 0.041,0.041 0.483,0.146 0.347,0.285 -0.12,0.121 -0.345,0.127 -0.48,0.229 -0.103,0.079 -0.189,0.118 -0.3,0.192" /><path
           id="path228"
           style="fill:#ce1126;fill-opacity:1;fill-rule:nonzero;stroke:none"
           d="M 16.767,16.298 C 16.69,16.3 16.553,16.177 16.473,16.1 c -0.167,-0.155 -0.417,-0.416 -0.428,-0.558 -0.003,-0.071 0.037,-0.131 0.172,-0.131 0.237,-10e-4 0.768,-0.061 0.83,-0.037 0.233,0.099 0.254,0.169 0.43,0.397 -0.062,-0.044 0.112,0.163 0.081,0.18 -0.144,0.076 -0.365,0.197 -0.49,0.26 -0.103,0.049 -0.184,0.087 -0.301,0.087" /><path
           id="path230"
           style="fill:#ce1126;fill-opacity:1;fill-rule:nonzero;stroke:none"
           d="m 17.102,14.724 c -0.057,0.164 -0.042,0.549 -0.124,0.631 -0.052,0.056 -0.321,0.022 -0.415,0.056 -0.18,0.021 -0.418,0.001 -0.533,-0.043 -0.111,-0.048 -0.081,-0.13 -0.019,-0.347 0.02,-0.072 0.033,-0.226 0.063,-0.285 0.022,-0.051 0.093,-0.077 0.114,-0.118 0.067,-0.042 0.213,-0.07 0.285,-0.098 0.146,0.009 0.512,-0.088 0.586,-0.032 0.022,0.063 0.019,0.162 0.043,0.236" /><path
           id="path232"
           style="fill:#ce1126;fill-opacity:1;fill-rule:nonzero;stroke:none"
           d="m 17.273,13.651 c -0.023,0.203 -0.073,0.655 -0.232,0.782 -0.046,0.039 -0.257,0.08 -0.407,0.08 -0.076,0 -0.338,0.067 -0.365,0.044 -0.112,-0.105 0.153,-0.413 0.204,-0.522 0.022,-0.052 0.208,-0.12 0.338,-0.198 0.136,-0.08 0.421,-0.331 0.462,-0.186" /><path
           id="path234"
           style="fill:#ce1126;fill-opacity:1;fill-rule:nonzero;stroke:none"
           d="m 16.359,13.392 c 0.113,0.015 0.239,0.015 0.362,0.048 0.112,0.026 0.304,0.006 0.4,0.032 0.037,0.012 0.061,0.075 0.037,0.124 -0.155,0.141 -0.528,0.347 -0.685,0.427 -0.04,0.021 -0.144,-0.038 -0.177,-0.049 -0.117,-0.1 -0.165,-0.177 -0.192,-0.257 -0.042,-0.127 0.156,-0.349 0.255,-0.325" /><path
           id="path236"
           style="fill:#ce1126;fill-opacity:1;fill-rule:nonzero;stroke:none"
           d="m 15.549,12.976 c 0.121,0.078 0.257,0.167 0.364,0.242 0.109,0.068 0.251,0.102 0.346,0.148 -0.04,0.108 -0.164,0.288 -0.204,0.328 -0.097,0.1 -0.538,-0.164 -0.691,-0.21 -0.048,-0.016 0.065,-0.236 0.105,-0.31 0.027,-0.052 0.021,-0.171 0.08,-0.198" /><path
           id="path238"
           style="fill:#ce1126;fill-opacity:1;fill-rule:nonzero;stroke:none"
           d="m 15.292,19.691 c 0.147,-0.052 0.412,-0.212 0.614,-0.31 0.075,-0.038 0.134,-0.018 0.229,0.034 0.03,0.018 0.041,0.042 0.019,0.063 0.005,0.13 -0.029,0.317 -0.009,0.399 0.001,0.192 0.101,0.359 0.071,0.419 -0.038,0.072 -0.091,0.092 -0.171,0.124 -0.157,0.063 -0.32,0.143 -0.352,0.115 -0.073,-0.055 -0.089,-0.074 -0.134,-0.149 -0.036,-0.102 -0.141,-0.164 -0.186,-0.261 -0.076,-0.145 -0.101,-0.26 -0.081,-0.434" /><path
           id="path240"
           style="fill:#ce1126;fill-opacity:1;fill-rule:nonzero;stroke:none"
           d="m 15.051,19.007 c 0.285,0.071 0.406,0.091 0.651,0.176 0.071,0.027 0.164,0.028 0.229,0.071 0.118,0.079 0.021,0.086 -0.02,0.109 -0.343,0.203 -0.525,0.278 -0.637,0.328 -0.044,0.02 -0.145,-0.042 -0.177,-0.052 -0.047,-0.017 -0.521,-0.334 -0.462,-0.391 0.034,-0.037 0.107,-0.057 0.15,-0.1 0.068,-0.064 0.181,-0.184 0.266,-0.141" /><path
           id="path242"
           style="fill:#ce1126;fill-opacity:1;fill-rule:nonzero;stroke:none"
           d="m 14.031,18.616 c 0.092,-0.08 0.383,0.1 0.514,0.152 0.158,0.062 0.199,0.07 0.247,0.127 0.03,0.041 0.164,0.144 0.091,0.202 -0.06,0.044 -0.183,0.071 -0.284,0.101 -0.073,0.022 -0.084,-0.001 -0.115,-0.015 -0.038,-0.013 -0.368,-0.248 -0.541,-0.35 -0.102,-0.057 -0.055,-0.148 0.088,-0.217" /><path
           id="path244"
           style="fill:#ce1126;fill-opacity:1;fill-rule:nonzero;stroke:none"
           d="m 13.982,18.622 c -0.041,0.041 -0.053,0.054 -0.09,0.088 -0.025,0.029 -0.092,0.025 -0.145,0.015 0,0 -0.26,-0.162 -0.557,-0.316 -0.04,-0.02 -0.161,-0.051 -0.212,-0.152 -0.032,-0.065 0.049,-0.052 0.071,-0.075 0.061,-0.068 0.145,-0.161 0.244,-0.244 0.113,-0.095 0.107,0.059 0.23,0.172 0.087,0.078 0.394,0.268 0.427,0.334 0.014,0.036 0.075,0.144 0.032,0.178" /><path
           id="path246"
           style="fill:#0072c6;fill-opacity:1;fill-rule:nonzero;stroke:none"
           d="m 16.194,25.271 c 0,0 -0.447,0.228 -0.748,0.303 -0.159,0.036 -0.278,0.044 -0.409,0.044 -0.185,-0.002 -0.253,-0.017 -0.409,-0.051 -0.196,-0.044 -0.389,0.012 -0.389,0.012 0,0 0.022,0.141 0.062,0.214 -0.117,-0.07 -0.309,-0.121 -0.426,-0.132 -0.244,-0.023 -0.465,0.112 -0.465,0.112 0.027,-0.071 0.251,-0.277 0.404,-0.381 0.046,-0.03 0.175,-0.13 0.351,-0.222 0.039,-0.02 0.225,-0.086 0.225,-0.086 l -0.12,0.25 c 0.347,-0.002 0.79,-0.02 0.919,-0.051 0.338,-0.082 0.721,-0.21 1.216,-0.382 z" /><path
           id="path248"
           style="fill:#ce1126;fill-opacity:1;fill-rule:nonzero;stroke:none"
           d="m 14.967,23.771 c 0.238,0.094 0.449,0.389 0.402,0.576 0.295,0.084 0.388,0.14 0.673,0.176 0.444,0.061 1.029,0.063 1.332,-0.163 0.158,-0.082 0.246,-0.147 0.452,-0.269 0.03,0.131 -0.233,0.574 -0.339,0.697 -0.019,0.021 -0.077,0.123 -0.152,0.164 0.164,0.171 0.471,0.234 0.601,0.234 -0.281,0.249 -1.01,0.378 -1.01,0.378 0,0 0.586,0.3 0.635,0.311 -0.452,0.277 -1.107,0.079 -1.255,0.063 -0.077,0.12 -0.175,0.227 -0.264,0.345 -0.341,0.454 -1.353,0.809 -2.205,0.702 0.411,-0.185 0.574,-0.282 0.729,-0.485 -0.203,0.051 -0.258,-0.02 -0.258,-0.02 0,0 0.199,-0.737 0.414,-0.975 0.101,0.27 0.119,0.347 0.214,0.526 0.143,-0.143 0.647,-0.465 0.986,-0.533 0.214,-0.267 0.358,-0.522 0.358,-0.522 0,0 -0.3,0.02 -0.327,0.014 -0.289,-0.098 -0.403,-0.086 -0.729,-0.163 -0.117,0.217 -0.176,0.615 -0.156,0.67 -0.081,-0.074 -0.095,-0.146 -0.12,-0.183 -0.159,-0.236 -0.127,-0.391 -0.176,-0.588 -0.226,-0.034 -0.312,-0.144 -0.312,-0.144 0,0 0.341,-0.164 0.394,-0.265 0.114,-0.215 0.16,-0.317 0.113,-0.546" /></g></g></g></svg>
