<?xml version="1.0" encoding="UTF-8" standalone="no"?>
<svg
   xmlns:dc="http://purl.org/dc/elements/1.1/"
   xmlns:cc="http://creativecommons.org/ns#"
   xmlns:rdf="http://www.w3.org/1999/02/22-rdf-syntax-ns#"
   xmlns:svg="http://www.w3.org/2000/svg"
   xmlns="http://www.w3.org/2000/svg"
   xmlns:sodipodi="http://sodipodi.sourceforge.net/DTD/sodipodi-0.dtd"
   xmlns:inkscape="http://www.inkscape.org/namespaces/inkscape"
   inkscape:version="1.0 (4035a4fb49, 2020-05-01)"
   sodipodi:docname="flag_gbnir.svg"
   viewBox="0 0 48 48"
   height="48"
   width="48"
   xml:space="preserve"
   id="svg250"
   version="1.1"><metadata
     id="metadata256"><rdf:RDF><cc:Work
         rdf:about=""><dc:format>image/svg+xml</dc:format><dc:type
           rdf:resource="http://purl.org/dc/dcmitype/StillImage" /><dc:title></dc:title></cc:Work></rdf:RDF></metadata><defs
     id="defs254"><clipPath
       id="clipPath266"
       clipPathUnits="userSpaceOnUse"><path
         id="path264"
         d="M 0,36 H 36 V 0 H 0 Z" /></clipPath><clipPath
       id="clipPath274"
       clipPathUnits="userSpaceOnUse"><path
         id="path272"
         d="M 0,36 H 36 V 0 H 0 Z" /></clipPath></defs><sodipodi:namedview
     inkscape:current-layer="g258"
     inkscape:window-maximized="0"
     inkscape:window-y="0"
     inkscape:window-x="0"
     inkscape:cy="24"
     inkscape:cx="24"
     inkscape:zoom="17.708333"
     showgrid="false"
     id="namedview252"
     inkscape:window-height="480"
     inkscape:window-width="730"
     inkscape:pageshadow="2"
     inkscape:pageopacity="0"
     guidetolerance="10"
     gridtolerance="10"
     objecttolerance="10"
     borderopacity="1"
     bordercolor="#666666"
     pagecolor="#ffffff" /><g
     transform="matrix(1.3333333,0,0,-1.3333333,0,48)"
     inkscape:label="flag_gbnir"
     inkscape:groupmode="layer"
     id="g258"><g
       id="g260"><g
         clip-path="url(#clipPath266)"
         id="g262"><g
           id="g268"><g
             clip-path="url(#clipPath274)"
             id="g270"><path
               id="path276"
               style="fill:#ce1124;fill-opacity:1;fill-rule:nonzero;stroke:none"
               d="M 32,31 H 31.978 4.022 4 C 1.791,31 0,29.209 0,27 V 26.604 9.396 9 C 0,6.791 1.791,5 4,5 H 4.022 31.978 32 c 2.209,0 4,1.791 4,4 V 9.396 26.604 27 c 0,2.209 -1.791,4 -4,4" /><path
               id="path278"
               style="fill:#eeeeee;fill-opacity:1;fill-rule:nonzero;stroke:none"
               d="M 13,18 C 13,18 0,27.414 0,27.105 V 26.704 9.296 8.895 C 0,8.586 13,18 13,18" /><path
               id="path280"
               style="fill:#eeeeee;fill-opacity:1;fill-rule:nonzero;stroke:none"
               d="M 18,15 C 18,15 3.697,5 4.07,5 H 4.093 31.907 31.93 C 32.303,5 18,15 18,15" /><path
               id="path282"
               style="fill:#eeeeee;fill-opacity:1;fill-rule:nonzero;stroke:none"
               d="m 23,18 c 0,0 13,-9.413 13,-9.105 v 0.401 17.409 0.4 C 36,27.414 23,18 23,18" /><path
               id="path284"
               style="fill:#eeeeee;fill-opacity:1;fill-rule:nonzero;stroke:none"
               d="M 18,21 C 18,21 3.697,31 4.07,31 H 4.093 31.907 31.93 C 32.303,31 18,21 18,21" /></g></g></g></g></g></svg>
